# xmcd CD database file
#
# Track frame offsets:
#	150
#	12171
#	26180
#	39101
#	52003
#	62712
#	76121
#	87186
#	98607
#	111547
#	122331
#	134952
#	145979
#	157081
#	167865
#
# Disc length: 2402 seconds
#
# Revision: 0
# Processed by: cddbd v1.4PL0 Copyright (c) Steve Scherf et al.
# Submitted via: CDex 1.40Release
#
DISCID=ca09600f
DTITLE=Light Crust Doughboys - 1936-1939 Texas Rose LP 2704
DYEAR=1900
DGENRE=Country
TTITLE0=Avalon
TTITLE1=Did You Ever Hear A Stringband Play
TTITLE2=Dirty Dish Rag
TTITLE3=I'm A Ding Dong Daddy
TTITLE4=Just Once To Often
TTITLE5=Little Rock Get A Away
TTITLE6=Mamy Gets What She Wants
TTITLE7=Mama Won't Let Me
TTITLE8=(New) Jeep's Blues
TTITLE9=Pussy, Pussy, Pussy
TTITLE10=Sitting On Top Of The World
TTITLE11=Slow Down Mr. Brown
TTITLE12=The Birth Of The Blues
TTITLE13=Thousand Mile Blues
TTITLE14=Waiting For The Robert E. Lee
EXTD=ID3G: 2
EXTT0=
EXTT1=
EXTT2=
EXTT3=
EXTT4=
EXTT5=
EXTT6=
EXTT7=
EXTT8=
EXTT9=
EXTT10=
EXTT11=
EXTT12=
EXTT13=
EXTT14=
PLAYORDER=
